<svg width="707" height="152" viewBox="0 0 707 152" fill="none" xmlns="http://www.w3.org/2000/svg">
<rect x="94" y="21" width="519" height="110" fill="#482121"/>
<path d="M140.31 84.24C140.816 84.64 141.683 85.1867 142.91 85.88C144.163 86.5733 145.35 86.92 146.47 86.92C147.616 86.92 148.19 86.48 148.19 85.6C148.19 85.2 148.03 84.8533 147.71 84.56C147.39 84.24 146.803 83.88 145.95 83.48C145.096 83.08 144.456 82.7733 144.03 82.56C143.603 82.32 143.03 81.9467 142.31 81.44C141.616 80.9067 141.083 80.36 140.71 79.8C139.643 78.28 139.11 76.3467 139.11 74C139.11 71.6533 139.976 69.68 141.71 68.08C143.47 66.4533 145.763 65.64 148.59 65.64C150.51 65.64 152.283 65.8533 153.91 66.28C155.536 66.68 156.376 67.2133 156.43 67.88C156.43 67.96 156.43 68.04 156.43 68.12C156.43 69.0533 156.136 70.24 155.55 71.68C154.963 73.0933 154.55 73.88 154.31 74.04C152.603 73.16 151.07 72.72 149.71 72.72C148.376 72.72 147.71 73.2 147.71 74.16C147.71 74.7467 148.203 75.2667 149.19 75.72C149.403 75.8267 149.71 75.9733 150.11 76.16C150.51 76.3467 150.963 76.5733 151.47 76.84C152.003 77.08 152.563 77.4 153.15 77.8C153.763 78.1733 154.416 78.68 155.11 79.32C156.523 80.6533 157.23 82.4133 157.23 84.6C157.23 87.4533 156.443 89.7867 154.87 91.6C153.296 93.4133 150.87 94.3467 147.59 94.4C145.99 94.4 144.536 94.2667 143.23 94C141.95 93.7333 140.83 93.2133 139.87 92.44C138.91 91.6667 138.43 90.7333 138.43 89.64C138.43 88.5467 138.63 87.4667 139.03 86.4C139.43 85.3067 139.856 84.5867 140.31 84.24ZM173.52 77.12C174.026 77.12 174.28 78.0533 174.28 79.92C174.28 80.48 174.213 81.1467 174.08 81.92C173.973 82.6667 173.76 83.04 173.44 83.04H168.36V87.04H175.72C176.173 87.04 176.48 87.6267 176.64 88.8C176.72 89.3067 176.76 89.8533 176.76 90.44C176.76 91 176.68 91.7333 176.52 92.64C176.36 93.5467 176.093 94 175.72 94H162.04C161.026 94 160.52 93.5867 160.52 92.76V67.04C160.52 66.3467 160.826 66 161.44 66H175.76C176.32 66 176.6 67.1867 176.6 69.56C176.6 71.9067 176.32 73.08 175.76 73.08H168.36V77.12H173.52ZM179.846 91.64V66.76C179.846 66.2 181.193 65.92 183.886 65.92C186.606 65.92 187.966 66.2 187.966 66.76V86.36H194.126C194.606 86.36 194.939 86.9867 195.126 88.24C195.206 88.8533 195.246 89.48 195.246 90.12C195.246 90.76 195.206 91.4133 195.126 92.08C194.913 93.36 194.566 94 194.086 94H181.766C181.179 94 180.713 93.76 180.366 93.28C180.019 92.8 179.846 92.2533 179.846 91.64ZM210.629 77.12C211.136 77.12 211.389 78.0533 211.389 79.92C211.389 80.48 211.322 81.1467 211.189 81.92C211.082 82.6667 210.869 83.04 210.549 83.04H205.469V87.04H212.829C213.282 87.04 213.589 87.6267 213.749 88.8C213.829 89.3067 213.869 89.8533 213.869 90.44C213.869 91 213.789 91.7333 213.629 92.64C213.469 93.5467 213.202 94 212.829 94H199.149C198.136 94 197.629 93.5867 197.629 92.76V67.04C197.629 66.3467 197.936 66 198.549 66H212.869C213.429 66 213.709 67.1867 213.709 69.56C213.709 71.9067 213.429 73.08 212.869 73.08H205.469V77.12H210.629ZM228.795 65.64C230.742 65.64 232.449 65.92 233.915 66.48C235.409 67.0133 236.155 67.7467 236.155 68.68C236.155 69.6133 235.795 70.7733 235.075 72.16C234.382 73.52 233.795 74.2 233.315 74.2C233.182 74.2 233.022 74.1333 232.835 74C232.675 73.84 232.275 73.68 231.635 73.52C231.022 73.3333 230.489 73.24 230.035 73.24C228.489 73.24 227.235 73.7867 226.275 74.88C225.342 75.9733 224.875 77.6533 224.875 79.92C224.875 82.16 225.355 83.8267 226.315 84.92C227.302 86.0133 228.542 86.56 230.035 86.56C230.649 86.56 231.329 86.48 232.075 86.32C232.849 86.1333 233.395 85.88 233.715 85.56C233.769 85.5067 233.875 85.48 234.035 85.48C234.195 85.48 234.489 85.7867 234.915 86.4C235.369 86.9867 235.782 87.7733 236.155 88.76C236.529 89.72 236.715 90.4667 236.715 91C236.715 92.04 235.915 92.8667 234.315 93.48C232.715 94.0933 230.822 94.4 228.635 94.4C225.115 94.4 222.222 93.16 219.955 90.68C217.689 88.2 216.555 84.7067 216.555 80.2C216.555 75.6667 217.715 72.1067 220.035 69.52C222.382 66.9333 225.302 65.64 228.795 65.64ZM251.817 93.36C251.817 93.8933 250.497 94.16 247.857 94.16C245.217 94.16 243.897 93.8933 243.897 93.36V73.28H239.097C238.644 73.28 238.324 72.6667 238.137 71.44C238.057 70.8533 238.017 70.2533 238.017 69.64C238.017 69.0267 238.057 68.4267 238.137 67.84C238.324 66.6133 238.644 66 239.097 66H256.497C256.951 66 257.271 66.6133 257.457 67.84C257.537 68.4267 257.577 69.0267 257.577 69.64C257.577 70.2533 257.537 70.8533 257.457 71.44C257.271 72.6667 256.951 73.28 256.497 73.28H251.817V93.36ZM281.315 67.32C281.661 66.3867 283.368 65.92 286.435 65.92C287.208 65.92 288.115 65.9733 289.155 66.08C290.221 66.1867 290.715 66.32 290.635 66.48L282.315 83.2V92.96C282.315 93.4133 281.581 93.7333 280.115 93.92C279.368 94.0267 278.635 94.08 277.915 94.08C277.195 94.08 276.475 94.04 275.755 93.96C274.288 93.7733 273.555 93.44 273.555 92.96V83.44L264.955 66.56C264.848 66.4 265.395 66.2533 266.595 66.12C267.795 65.96 268.808 65.88 269.635 65.88C272.915 65.88 274.715 66.36 275.035 67.32L277.955 75.48L281.315 67.32ZM303.884 94.4C300.151 94.4 297.097 93.1733 294.724 90.72C292.377 88.2667 291.204 84.6933 291.204 80C291.204 75.28 292.391 71.7067 294.764 69.28C297.164 66.8533 300.244 65.64 304.004 65.64C307.791 65.64 310.844 66.84 313.164 69.24C315.484 71.6133 316.644 75.2267 316.644 80.08C316.644 84.9067 315.457 88.5067 313.084 90.88C310.711 93.2267 307.644 94.4 303.884 94.4ZM303.924 73.32C302.644 73.32 301.564 73.9067 300.684 75.08C299.831 76.2533 299.404 77.9067 299.404 80.04C299.404 82.1467 299.817 83.7733 300.644 84.92C301.471 86.04 302.551 86.6 303.884 86.6C305.244 86.6 306.337 86.0267 307.164 84.88C308.017 83.7333 308.444 82.0933 308.444 79.96C308.444 77.8267 308.004 76.1867 307.124 75.04C306.271 73.8933 305.204 73.32 303.924 73.32ZM332.935 66.8C332.935 66.2667 334.375 66 337.255 66C340.162 66 341.615 66.2667 341.615 66.8V85.16C341.615 87.88 340.642 90.1067 338.695 91.84C336.749 93.5467 334.055 94.4 330.615 94.4C327.202 94.4 324.415 93.52 322.255 91.76C320.122 89.9733 319.055 87.5733 319.055 84.56V66.84C319.055 66.3067 320.495 66.04 323.375 66.04C326.282 66.04 327.735 66.3067 327.735 66.84V84.88C327.735 85.4133 328.015 85.84 328.575 86.16C329.162 86.48 329.775 86.64 330.415 86.64C331.055 86.64 331.629 86.4933 332.135 86.2C332.669 85.9067 332.935 85.4667 332.935 84.88V66.8ZM352.613 93.44C352.613 93.8667 351.346 94.08 348.813 94.08C346.253 94.08 344.973 93.88 344.973 93.48V67.4C344.973 66.4667 345.466 66 346.453 66H354.093C361.106 66 364.613 68.7333 364.613 74.2C364.613 75.8533 364.293 77.36 363.653 78.72C363.013 80.0533 362.106 81.12 360.933 81.92L365.973 90.32C365.759 90.96 365.066 91.6933 363.893 92.52C362.293 93.6667 360.973 94.24 359.933 94.24C358.893 94.24 358.119 93.8667 357.613 93.12L353.853 84.36H352.613V93.44ZM352.613 73.08V79.08H352.813C355.346 79.08 356.613 78.0267 356.613 75.92C356.613 74.96 356.359 74.2533 355.853 73.8C355.373 73.32 354.573 73.08 353.453 73.08H352.613ZM395.745 73.24C395.745 76.0133 394.545 78.12 392.145 79.56C393.452 80.04 394.545 80.8667 395.425 82.04C396.305 83.2133 396.745 84.88 396.745 87.04C396.745 89.1733 395.945 90.8667 394.345 92.12C392.772 93.3733 390.505 94 387.545 94H378.105C377.652 94 377.279 93.8533 376.985 93.56C376.692 93.24 376.545 92.8267 376.545 92.32V66.72C376.545 66.4267 376.585 66.24 376.665 66.16C376.772 66.0533 376.972 66 377.265 66H386.385C392.625 66 395.745 68.4133 395.745 73.24ZM384.225 72.48V77.72H384.425C386.985 77.72 388.265 76.8667 388.265 75.16C388.265 74.2267 388.012 73.5467 387.505 73.12C387.025 72.6933 386.212 72.48 385.065 72.48H384.225ZM384.225 82.44V87.64H384.945C386.092 87.64 386.932 87.4267 387.465 87C387.999 86.5733 388.265 85.8933 388.265 84.96C388.265 84.0267 388.012 83.3733 387.505 83C387.025 82.6267 386.212 82.44 385.065 82.44H384.225ZM411.735 94.4C408.002 94.4 404.949 93.1733 402.575 90.72C400.229 88.2667 399.055 84.6933 399.055 80C399.055 75.28 400.242 71.7067 402.615 69.28C405.015 66.8533 408.095 65.64 411.855 65.64C415.642 65.64 418.695 66.84 421.015 69.24C423.335 71.6133 424.495 75.2267 424.495 80.08C424.495 84.9067 423.309 88.5067 420.935 90.88C418.562 93.2267 415.495 94.4 411.735 94.4ZM411.775 73.32C410.495 73.32 409.415 73.9067 408.535 75.08C407.682 76.2533 407.255 77.9067 407.255 80.04C407.255 82.1467 407.669 83.7733 408.495 84.92C409.322 86.04 410.402 86.6 411.735 86.6C413.095 86.6 414.189 86.0267 415.015 84.88C415.869 83.7333 416.295 82.0933 416.295 79.96C416.295 77.8267 415.855 76.1867 414.975 75.04C414.122 73.8933 413.055 73.32 411.775 73.32ZM427.707 92.16V68.16C427.707 67.4933 427.867 66.9733 428.187 66.6C428.534 66.2 428.974 66 429.507 66H436.187C440.427 66 443.64 67.0667 445.827 69.2C448.04 71.3333 449.147 74.6933 449.147 79.28C449.147 89.0933 444.96 94 436.587 94H429.747C428.387 94 427.707 93.3867 427.707 92.16ZM435.387 73.6V85.56C435.387 86.12 435.427 86.48 435.507 86.64C435.587 86.7733 435.827 86.84 436.227 86.84C437.694 86.84 438.8 86.2933 439.547 85.2C440.32 84.1067 440.707 82.2933 440.707 79.76C440.707 77.2 440.307 75.5333 439.507 74.76C438.734 73.9867 437.494 73.6 435.787 73.6H435.387ZM466.275 67.32C466.622 66.3867 468.329 65.92 471.395 65.92C472.169 65.92 473.075 65.9733 474.115 66.08C475.182 66.1867 475.675 66.32 475.595 66.48L467.275 83.2V92.96C467.275 93.4133 466.542 93.7333 465.075 93.92C464.329 94.0267 463.595 94.08 462.875 94.08C462.155 94.08 461.435 94.04 460.715 93.96C459.249 93.7733 458.515 93.44 458.515 92.96V83.44L449.915 66.56C449.809 66.4 450.355 66.2533 451.555 66.12C452.755 65.96 453.769 65.88 454.595 65.88C457.875 65.88 459.675 66.36 459.995 67.32L462.915 75.48L466.275 67.32ZM496.544 93.36C496.544 93.8933 495.224 94.16 492.584 94.16C489.944 94.16 488.624 93.8933 488.624 93.36V73.28H483.824C483.371 73.28 483.051 72.6667 482.864 71.44C482.784 70.8533 482.744 70.2533 482.744 69.64C482.744 69.0267 482.784 68.4267 482.864 67.84C483.051 66.6133 483.371 66 483.824 66H501.224C501.677 66 501.997 66.6133 502.184 67.84C502.264 68.4267 502.304 69.0267 502.304 69.64C502.304 70.2533 502.264 70.8533 502.184 71.44C501.997 72.6667 501.677 73.28 501.224 73.28H496.544V93.36ZM518.502 67.32C518.849 66.3867 520.555 65.92 523.622 65.92C524.395 65.92 525.302 65.9733 526.342 66.08C527.409 66.1867 527.902 66.32 527.822 66.48L519.502 83.2V92.96C519.502 93.4133 518.769 93.7333 517.302 93.92C516.555 94.0267 515.822 94.08 515.102 94.08C514.382 94.08 513.662 94.04 512.942 93.96C511.475 93.7733 510.742 93.44 510.742 92.96V83.44L502.142 66.56C502.035 66.4 502.582 66.2533 503.782 66.12C504.982 65.96 505.995 65.88 506.822 65.88C510.102 65.88 511.902 66.36 512.222 67.32L515.142 75.48L518.502 67.32ZM532.671 94.08C530.245 94.08 529.031 93.8133 529.031 93.28V67.36C529.031 66.4533 529.445 66 530.271 66H537.311C541.258 66 544.098 66.8133 545.831 68.44C547.591 70.0667 548.471 72.4267 548.471 75.52C548.471 78.08 547.645 80.4267 545.991 82.56C545.165 83.6267 543.951 84.48 542.351 85.12C540.751 85.76 538.885 86.08 536.751 86.08V93.24C536.751 93.56 536.245 93.7867 535.231 93.92C534.245 94.0267 533.391 94.08 532.671 94.08ZM536.751 72.96V79.28H537.271C538.205 79.28 538.991 78.9867 539.631 78.4C540.271 77.8133 540.591 76.9867 540.591 75.92C540.591 74.8533 540.365 74.0933 539.911 73.64C539.485 73.1867 538.711 72.96 537.591 72.96H536.751ZM565.004 77.12C565.511 77.12 565.764 78.0533 565.764 79.92C565.764 80.48 565.697 81.1467 565.564 81.92C565.457 82.6667 565.244 83.04 564.924 83.04H559.844V87.04H567.204C567.657 87.04 567.964 87.6267 568.124 88.8C568.204 89.3067 568.244 89.8533 568.244 90.44C568.244 91 568.164 91.7333 568.004 92.64C567.844 93.5467 567.577 94 567.204 94H553.524C552.511 94 552.004 93.5867 552.004 92.76V67.04C552.004 66.3467 552.311 66 552.924 66H567.244C567.804 66 568.084 67.1867 568.084 69.56C568.084 71.9067 567.804 73.08 567.244 73.08H559.844V77.12H565.004Z" fill="#FFF4F4"/>
<path d="M706.146 75.8695L611.506 140.867L611.96 10.2154L706.146 75.8695Z" fill="#482121"/>
<path d="M0.262305 75.4318L94.9022 10.4343L94.4479 141.086L0.262305 75.4318Z" fill="#482121"/>
</svg>
