<svg width="644" height="71" viewBox="0 0 644 71" fill="none" xmlns="http://www.w3.org/2000/svg">
<path d="M7.14921 0.817448H26.7547V10.6202H11.0703L10.8252 11.1103L23.8955 34.9636C26.564 39.756 27.8983 43.4048 27.8983 45.91C27.8983 51.4104 26.0739 55.4404 22.4251 58H0.777438V48.524H17.6871L17.9322 48.0339L3.22812 21.6482C1.1042 17.8361 0.0422339 14.7319 0.0422339 12.3356C0.0422339 6.67185 2.41123 2.83245 7.14921 0.817448ZM51.6546 24.8341H45.5279C44.711 25.8144 44.0303 27.1759 43.4857 28.9186C42.9955 30.6613 42.7504 32.3495 42.7504 33.9833H54.432C54.5409 32.3495 54.3231 30.6613 53.7785 28.9186C53.2339 27.1214 52.5259 25.7599 51.6546 24.8341ZM62.7643 49.4226V58H42.0152C38.2031 55.4404 35.5073 52.2817 33.928 48.524C32.4031 44.7119 31.6407 40.8725 31.6407 37.0058C31.6407 28.0745 35.0172 21.1581 41.7702 16.2567H55.0039C58.6526 18.9253 61.1306 21.7572 62.4376 24.7524C63.7446 27.7477 64.3981 30.7702 64.3981 33.82C64.3981 36.8697 64.1531 39.4837 63.6629 41.6621H43.3223C43.4857 42.9147 43.9486 44.3579 44.711 45.9917C45.5279 47.571 46.3992 48.7146 47.3251 49.4226H62.7643ZM80.6626 0.817448V58H69.8796V0.817448H80.6626ZM106.54 24.8341H100.413C99.596 25.8144 98.9153 27.1759 98.3707 28.9186C97.8806 30.6613 97.6355 32.3495 97.6355 33.9833H109.317C109.426 32.3495 109.208 30.6613 108.664 28.9186C108.119 27.1214 107.411 25.7599 106.54 24.8341ZM117.649 49.4226V58H96.9003C93.0881 55.4404 90.3924 52.2817 88.813 48.524C87.2882 44.7119 86.5257 40.8725 86.5257 37.0058C86.5257 28.0745 89.9022 21.1581 96.6552 16.2567H109.889C113.538 18.9253 116.016 21.7572 117.323 24.7524C118.63 27.7477 119.283 30.7702 119.283 33.82C119.283 36.8697 119.038 39.4837 118.548 41.6621H98.2073C98.3707 42.9147 98.8336 44.3579 99.596 45.9917C100.413 47.571 101.284 48.7146 102.21 49.4226H117.649ZM134.894 36.7608C134.894 39.0481 135.248 41.3898 135.956 43.7861C136.664 46.1278 137.644 48.0067 138.897 49.4226H151.15V58H133.26C126.834 52.8808 123.621 45.8011 123.621 36.7608C123.621 27.7205 127.052 20.8858 133.914 16.2567H151.15V24.8341H138.897C136.228 27.6116 134.894 31.5871 134.894 36.7608ZM159.045 39.7833V24.8341H153.409V16.2567H159.045V4.90192H169.91V16.2567H176.609V24.8341H169.91V42.3973C169.91 45.7194 170.482 48.0611 171.626 49.4226H176.609V58H165.009C162.122 55.3315 160.38 52.4451 159.781 49.3409C159.291 46.7269 159.045 43.541 159.045 39.7833ZM215.63 58H203.703V38.9664L191.613 0.817448H202.723L207.788 18.2173L209.503 28.2651H209.83L211.546 18.2173L216.61 0.817448H227.72L215.63 38.9664V58ZM252.029 58H234.221C228.775 52.9353 226.052 46.0189 226.052 37.2509C226.052 32.8397 226.651 29.0003 227.849 25.7327C229.102 22.4651 231.062 19.3065 233.731 16.2567H252.846C255.678 19.5243 257.611 22.7102 258.646 25.8144C259.681 28.8641 260.198 32.6763 260.198 37.2509C260.198 46.0189 257.475 52.9353 252.029 58ZM240.021 49.4226H246.229C248.19 45.6104 249.17 41.2809 249.17 36.434C249.17 31.5871 248.162 27.7205 246.147 24.8341H240.021C238.06 27.6116 237.08 31.5599 237.08 36.6791C237.08 41.7438 238.06 45.9917 240.021 49.4226ZM280.505 58H271.927C269.531 54.9503 267.897 51.9005 267.026 48.8508C266.155 45.8011 265.719 41.9889 265.719 37.4143V16.2567H276.584V38.2312C276.584 43.187 277.564 46.9175 279.524 49.4226H287.122V16.2567H297.986V58H289.409L287.939 55.0592C285.869 57.0197 283.391 58 280.505 58ZM305.058 58V16.2567H312.818L314.86 20.668C317.039 17.7271 319.789 16.2567 323.111 16.2567H326.297V27.2031H315.922V58H305.058ZM344.474 58V0.817448H367.755C370.424 1.79772 372.793 3.5132 374.862 5.96388C376.932 8.41456 377.967 11.3826 377.967 14.868C377.967 21.022 375.952 25.3243 371.922 27.7749V28.1017C376.932 30.8791 379.437 35.2359 379.437 41.172C379.437 47.9794 375.979 53.5888 369.062 58H344.474ZM355.584 24.4257H363.671C366.067 22.9553 367.265 20.7224 367.265 17.7271C367.265 14.7319 366.149 12.3629 363.916 10.6202H355.584V24.4257ZM355.584 48.524H363.998C364.978 47.8161 365.849 46.6996 366.612 45.1748C367.429 43.6499 367.837 42.125 367.837 40.6002C367.837 39.0753 367.51 37.6866 366.857 36.434C366.203 35.1814 365.386 34.2556 364.406 33.6566H355.584V48.524ZM409.823 58H392.015C386.569 52.9353 383.846 46.0189 383.846 37.2509C383.846 32.8397 384.445 29.0003 385.643 25.7327C386.896 22.4651 388.857 19.3065 391.525 16.2567H410.64C413.472 19.5243 415.406 22.7102 416.44 25.8144C417.475 28.8641 417.992 32.6763 417.992 37.2509C417.992 46.0189 415.269 52.9353 409.823 58ZM397.815 49.4226H404.024C405.984 45.6104 406.964 41.2809 406.964 36.434C406.964 31.5871 405.957 27.7205 403.942 24.8341H397.815C395.855 27.6116 394.874 31.5599 394.874 36.6791C394.874 41.7438 395.855 45.9917 397.815 49.4226ZM455.454 58H447.203L445.733 55.0592C444.535 56.1484 443.391 56.9108 442.302 57.3465C441.267 57.7822 439.688 58 437.564 58H430.457C428.061 55.7127 426.155 52.7174 424.739 49.0142C423.377 45.3109 422.697 41.172 422.697 36.5974C422.697 31.9683 423.377 28.0472 424.739 24.8341C426.155 21.621 428.143 18.7619 430.702 16.2567H437.727C440.614 16.2567 442.901 17.0192 444.589 18.544V0.817448H455.454V58ZM444.589 24.8341H436.747C434.732 28.2651 433.725 32.4857 433.725 37.496C433.725 42.4518 434.705 46.4273 436.665 49.4226H444.589V24.8341ZM462.206 35.0453V16.2567H473.071V35.127C473.071 39.865 474.024 43.8133 475.93 46.9719H480.75C482.547 43.8677 483.445 39.9194 483.445 35.127V16.2567H494.31V34.4735C494.31 38.5579 493.765 42.1523 492.676 45.2565C491.642 48.3607 489.926 51.8733 487.53 55.7944L482.057 64.6985C481.076 66.3868 480.042 67.6393 478.952 68.4562C477.863 69.2731 476.447 69.8722 474.705 70.2534H461.798V61.676H470.62C471.764 61.3493 472.717 60.7774 473.479 59.9605C474.242 59.1437 475.031 57.9728 475.848 56.4479L476.338 55.5493H470.702C468.088 53.4254 466.018 50.5663 464.493 46.9719C462.969 43.3231 462.206 39.3476 462.206 35.0453ZM510.702 10.6202H498.366V0.817448H534.146V10.6202H521.811V58H510.702V10.6202ZM534.163 35.0453V16.2567H545.028V35.127C545.028 39.865 545.981 43.8133 547.887 46.9719H552.706C554.504 43.8677 555.402 39.9194 555.402 35.127V16.2567H566.267V34.4735C566.267 38.5579 565.722 42.1523 564.633 45.2565C563.598 48.3607 561.883 51.8733 559.487 55.7944L554.013 64.6985C553.033 66.3868 551.998 67.6393 550.909 68.4562C549.82 69.2731 548.404 69.8722 546.661 70.2534H533.755V61.676H542.577C543.721 61.3493 544.674 60.7774 545.436 59.9605C546.199 59.1437 546.988 57.9728 547.805 56.4479L548.295 55.5493H542.659C540.045 53.4254 537.975 50.5663 536.45 46.9719C534.925 43.3231 534.163 39.3476 534.163 35.0453ZM573.019 16.2567H581.76L582.985 19.1976C584.183 18.1084 585.3 17.3459 586.334 16.9103C587.424 16.4746 589.03 16.2567 591.154 16.2567H598.506C600.793 18.4896 602.591 21.3759 603.898 24.9158C605.205 28.4557 605.858 32.3495 605.858 36.5974C605.858 45.6921 603.135 52.8263 597.689 58H590.746C587.859 58 585.572 57.2376 583.884 55.7127V70.2534H573.019V16.2567ZM583.884 49.4226H591.726C593.741 45.9917 594.748 41.8255 594.748 36.9241C594.748 32.0228 593.714 27.9928 591.644 24.8341H583.884V49.4226ZM630.58 24.8341H624.453C623.636 25.8144 622.956 27.1759 622.411 28.9186C621.921 30.6613 621.676 32.3495 621.676 33.9833H633.357C633.466 32.3495 633.249 30.6613 632.704 28.9186C632.159 27.1214 631.451 25.7599 630.58 24.8341ZM641.69 49.4226V58H620.941C617.129 55.4404 614.433 52.2817 612.853 48.524C611.329 44.7119 610.566 40.8725 610.566 37.0058C610.566 28.0745 613.943 21.1581 620.696 16.2567H633.929C637.578 18.9253 640.056 21.7572 641.363 24.7524C642.67 27.7477 643.324 30.7702 643.324 33.82C643.324 36.8697 643.078 39.4837 642.588 41.6621H622.248C622.411 42.9147 622.874 44.3579 623.636 45.9917C624.453 47.571 625.325 48.7146 626.25 49.4226H641.69Z" fill="#FFF6E9"/>
</svg>
