<svg width="24276" height="2621" viewBox="0 0 24276 2621" fill="none" xmlns="http://www.w3.org/2000/svg">
<path d="M268.258 0.742871H1008.1V370.662H416.226L406.978 389.158L900.203 1289.3C1000.9 1470.14 1051.25 1607.84 1051.25 1702.37C1051.25 1909.94 982.408 2062.02 844.716 2158.61H27.8105V1801.02H665.921L675.169 1782.52L120.29 786.821C40.1411 642.964 0.0665173 525.823 0.0665173 435.398C0.0665173 221.667 89.4637 76.7818 268.258 0.742871ZM1947.73 907.045H1716.53C1685.7 944.037 1660.02 995.415 1639.46 1061.18C1620.97 1126.94 1611.72 1190.65 1611.72 1252.3H2052.54C2056.65 1190.65 2048.43 1126.94 2027.88 1061.18C2007.33 993.36 1980.61 941.982 1947.73 907.045ZM2366.97 1834.93V2158.61H1583.98C1440.12 2062.02 1338.39 1942.82 1278.79 1801.02C1221.25 1657.16 1192.48 1512.27 1192.48 1366.36C1192.48 1029.32 1319.89 768.325 1574.73 583.366H2074.12C2211.81 684.066 2305.32 790.932 2354.64 903.963C2403.96 1016.99 2428.63 1131.05 2428.63 1246.14C2428.63 1361.22 2419.38 1459.87 2400.88 1542.07H1633.3C1639.46 1589.34 1656.93 1643.8 1685.7 1705.45C1716.53 1765.05 1749.41 1808.21 1784.35 1834.93H2366.97ZM3042.39 0.742871V2158.61H2635.48V0.742871H3042.39ZM4018.89 907.045H3787.69C3756.87 944.037 3731.18 995.415 3710.63 1061.18C3692.13 1126.94 3682.88 1190.65 3682.88 1252.3H4123.7C4127.81 1190.65 4119.59 1126.94 4099.04 1061.18C4078.49 993.36 4051.77 941.982 4018.89 907.045ZM4438.13 1834.93V2158.61H3655.14C3511.28 2062.02 3409.55 1942.82 3349.96 1801.02C3292.41 1657.16 3263.64 1512.27 3263.64 1366.36C3263.64 1029.32 3391.06 768.325 3645.89 583.366H4145.28C4282.97 684.066 4376.48 790.932 4425.8 903.963C4475.13 1016.99 4499.79 1131.05 4499.79 1246.14C4499.79 1361.22 4490.54 1459.87 4472.04 1542.07H3704.46C3710.63 1589.34 3728.1 1643.8 3756.87 1705.45C3787.69 1765.05 3820.57 1808.21 3855.51 1834.93H4438.13ZM5088.89 1357.11C5088.89 1443.43 5102.25 1531.8 5128.96 1622.22C5155.68 1710.59 5192.67 1781.49 5239.94 1834.93H5702.34V2158.61H5027.24C4784.73 1965.43 4663.48 1698.26 4663.48 1357.11C4663.48 1015.97 4792.95 758.05 5051.9 583.366H5702.34V907.045H5239.94C5139.24 1011.86 5088.89 1161.88 5088.89 1357.11ZM6000.27 1471.17V907.045H5787.57V583.366H6000.27V154.876H6410.27V583.366H6663.05V907.045H6410.27V1569.82C6410.27 1695.18 6431.85 1783.55 6475 1834.93H6663.05V2158.61H6225.31C6116.39 2057.91 6050.62 1948.98 6028.02 1831.84C6009.52 1733.2 6000.27 1612.97 6000.27 1471.17ZM8135.57 2158.61H7685.5V1440.35L7229.27 0.742871H7648.51L7839.63 657.35L7904.37 1036.52H7916.7L7981.44 657.35L8172.56 0.742871H8591.8L8135.57 1440.35V2158.61ZM9509.14 2158.61H8837.12C8631.6 1967.48 8528.85 1706.48 8528.85 1375.61C8528.85 1209.15 8551.46 1064.26 8596.67 940.954C8643.94 817.648 8717.92 698.452 8818.62 583.366H9539.96C9646.83 706.672 9719.78 826.896 9758.83 944.037C9797.88 1059.12 9817.4 1202.98 9817.4 1375.61C9817.4 1706.48 9714.65 1967.48 9509.14 2158.61ZM9055.98 1834.93H9290.27C9364.25 1691.07 9401.24 1527.69 9401.24 1344.78C9401.24 1161.88 9363.22 1015.97 9287.18 907.045H9055.98C8982 1011.86 8945.01 1160.85 8945.01 1354.03C8945.01 1545.16 8982 1705.45 9055.98 1834.93ZM10583.7 2158.61H10260C10169.6 2043.52 10108 1928.43 10075.1 1813.35C10042.2 1698.26 10025.7 1554.4 10025.7 1381.77V583.366H10435.7V1412.6C10435.7 1599.62 10472.7 1740.39 10546.7 1834.93H10833.4V583.366H11243.4V2158.61H10919.7L10864.2 2047.63C10786.1 2121.61 10692.6 2158.61 10583.7 2158.61ZM11510.2 2158.61V583.366H11803.1L11880.2 749.83C11962.4 638.854 12066.1 583.366 12191.5 583.366H12311.7V996.442H11920.2V2158.61H11510.2ZM12997.7 2158.61V0.742871H13876.2C13976.9 37.7348 14066.3 102.471 14144.4 194.951C14222.5 287.43 14261.6 399.434 14261.6 530.961C14261.6 763.188 14185.5 925.541 14033.4 1018.02V1030.35C14222.5 1135.16 14317.1 1299.57 14317.1 1523.58C14317.1 1780.47 14186.6 1992.14 13925.6 2158.61H12997.7ZM13416.9 891.632H13722.1C13812.5 836.144 13857.7 751.885 13857.7 638.854C13857.7 525.823 13815.6 436.426 13731.3 370.662H13416.9V891.632ZM13416.9 1801.02H13734.4C13771.4 1774.3 13804.3 1732.17 13833.1 1674.63C13863.9 1617.08 13879.3 1559.54 13879.3 1502C13879.3 1444.46 13867 1392.05 13842.3 1344.78C13817.7 1297.52 13786.8 1262.58 13749.8 1239.97H13416.9V1801.02ZM15463.7 2158.61H14791.7C14586.2 1967.48 14483.4 1706.48 14483.4 1375.61C14483.4 1209.15 14506 1064.26 14551.3 940.954C14598.5 817.648 14672.5 698.452 14773.2 583.366H15494.6C15601.4 706.672 15674.4 826.896 15713.4 944.037C15752.5 1059.12 15772 1202.98 15772 1375.61C15772 1706.48 15669.2 1967.48 15463.7 2158.61ZM15010.6 1834.93H15244.9C15318.8 1691.07 15355.8 1527.69 15355.8 1344.78C15355.8 1161.88 15317.8 1015.97 15241.8 907.045H15010.6C14936.6 1011.86 14899.6 1160.85 14899.6 1354.03C14899.6 1545.16 14936.6 1705.45 15010.6 1834.93ZM17185.7 2158.61H16874.3L16818.8 2047.63C16773.6 2088.73 16730.5 2117.5 16689.4 2133.94C16650.3 2150.39 16590.7 2158.61 16510.6 2158.61H16242.4C16151.9 2072.29 16080 1959.26 16026.6 1819.51C15975.2 1679.77 15949.5 1523.58 15949.5 1350.95C15949.5 1176.26 15975.2 1028.3 16026.6 907.045C16080 785.794 16155 677.901 16251.6 583.366H16516.7C16625.6 583.366 16712 612.137 16775.7 669.68V0.742871H17185.7V2158.61ZM16775.7 907.045H16479.7C16403.7 1036.52 16365.7 1195.79 16365.7 1384.86C16365.7 1571.87 16402.7 1721.9 16476.6 1834.93H16775.7V907.045ZM17440.5 1292.38V583.366H17850.5V1295.46C17850.5 1474.25 17886.4 1623.25 17958.3 1742.45H18140.2C18208 1625.31 18242 1476.31 18242 1295.46V583.366H18651.9V1270.8C18651.9 1424.93 18631.4 1560.57 18590.3 1677.71C18551.2 1794.85 18486.5 1927.41 18396.1 2075.37L18189.5 2411.38C18152.6 2475.09 18113.5 2522.36 18072.4 2553.19C18031.3 2584.01 17977.9 2606.62 17912.1 2621H17425V2297.33H17758C17801.1 2284.99 17837.1 2263.42 17865.9 2232.59C17894.6 2201.76 17924.4 2157.58 17955.3 2100.03L17973.8 2066.13H17761.1C17662.4 1985.98 17584.3 1878.08 17526.8 1742.45C17469.2 1604.75 17440.5 1454.73 17440.5 1292.38ZM19270.5 370.662H18805V0.742871H20155.2V370.662H19689.7V2158.61H19270.5V370.662ZM20155.9 1292.38V583.366H20565.8V1295.46C20565.8 1474.25 20601.8 1623.25 20673.7 1742.45H20855.6C20923.4 1625.31 20957.3 1476.31 20957.3 1295.46V583.366H21367.3V1270.8C21367.3 1424.93 21346.8 1560.57 21305.7 1677.71C21266.6 1794.85 21201.9 1927.41 21111.5 2075.37L20904.9 2411.38C20867.9 2475.09 20828.9 2522.36 20787.8 2553.19C20746.7 2584.01 20693.3 2606.62 20627.5 2621H20140.4V2297.33H20473.4C20516.5 2284.99 20552.5 2263.42 20581.3 2232.59C20610 2201.76 20639.8 2157.58 20670.7 2100.03L20689.2 2066.13H20476.4C20377.8 1985.98 20299.7 1878.08 20242.2 1742.45C20184.6 1604.75 20155.9 1454.73 20155.9 1292.38ZM21622.1 583.366H21952L21998.2 694.342C22043.4 653.239 22085.6 624.468 22124.6 608.027C22165.7 591.586 22226.3 583.366 22306.5 583.366H22583.9C22670.2 667.625 22738.1 776.546 22787.4 910.128C22836.7 1043.71 22861.4 1190.65 22861.4 1350.95C22861.4 1694.15 22758.6 1963.37 22553.1 2158.61H22291.1C22182.2 2158.61 22095.8 2129.83 22032.1 2072.29V2621H21622.1V583.366ZM22032.1 1834.93H22328.1C22404.1 1705.45 22442.1 1548.24 22442.1 1363.28C22442.1 1178.32 22403.1 1026.24 22325 907.045H22032.1V1834.93ZM23794.3 907.045H23563.1C23532.3 944.037 23506.6 995.415 23486 1061.18C23467.5 1126.94 23458.3 1190.65 23458.3 1252.3H23899.1C23903.2 1190.65 23895 1126.94 23874.4 1061.18C23853.9 993.36 23827.2 941.982 23794.3 907.045ZM24213.5 1834.93V2158.61H23430.5C23286.7 2062.02 23184.9 1942.82 23125.3 1801.02C23067.8 1657.16 23039 1512.27 23039 1366.36C23039 1029.32 23166.4 768.325 23421.3 583.366H23920.7C24058.4 684.066 24151.9 790.932 24201.2 903.963C24250.5 1016.99 24275.2 1131.05 24275.2 1246.14C24275.2 1361.22 24265.9 1459.87 24247.4 1542.07H23479.9C23486 1589.34 23503.5 1643.8 23532.3 1705.45C23563.1 1765.05 23596 1808.21 23630.9 1834.93H24213.5Z" fill="#FFF6E9"/>
</svg>
