<svg width="8362" height="904" viewBox="0 0 8362 904" fill="none" xmlns="http://www.w3.org/2000/svg">
<path d="M92.9127 0.795457H347.726V128.202H143.875L140.69 134.572L310.565 444.595C345.248 506.882 362.59 554.306 362.59 586.865C362.59 658.355 338.878 710.733 291.455 744H10.0985V620.84H229.875L233.06 614.47L41.9501 271.534C14.3454 221.987 0.543018 181.642 0.543018 150.498C0.543018 76.8855 31.3329 26.9846 92.9127 0.795457ZM671.351 312.941H591.722C581.105 325.682 572.257 343.377 565.179 366.027C558.809 388.677 555.624 410.62 555.624 431.854H707.45C708.866 410.62 706.034 388.677 698.956 366.027C691.878 342.67 682.676 324.974 671.351 312.941ZM815.745 632.519V744H546.068C496.521 710.733 461.485 669.68 440.958 620.84C421.139 571.293 411.23 521.393 411.23 471.138C411.23 355.056 455.114 265.164 542.883 201.461H714.882C762.306 236.144 794.511 272.95 811.499 311.88C828.486 350.809 836.98 390.093 836.98 429.731C836.98 469.368 833.795 503.343 827.424 531.656H563.056C565.179 547.936 571.196 566.693 581.105 587.927C591.722 608.454 603.047 623.318 615.08 632.519H815.745ZM1048.37 0.795457V744H908.223V0.795457H1048.37ZM1384.7 312.941H1305.07C1294.45 325.682 1285.6 343.377 1278.52 366.027C1272.15 388.677 1268.97 410.62 1268.97 431.854H1420.79C1422.21 410.62 1419.38 388.677 1412.3 366.027C1405.22 342.67 1396.02 324.974 1384.7 312.941ZM1529.09 632.519V744H1259.41C1209.87 710.733 1174.83 669.68 1154.3 620.84C1134.48 571.293 1124.57 521.393 1124.57 471.138C1124.57 355.056 1168.46 265.164 1256.23 201.461H1428.23C1475.65 236.144 1507.85 272.95 1524.84 311.88C1541.83 350.809 1550.32 390.093 1550.32 429.731C1550.32 469.368 1547.14 503.343 1540.77 531.656H1276.4C1278.52 547.936 1284.54 566.693 1294.45 587.927C1305.07 608.454 1316.39 623.318 1328.42 632.519H1529.09ZM1753.22 467.953C1753.22 497.681 1757.82 528.117 1767.02 559.261C1776.22 589.697 1788.96 614.116 1805.24 632.519H1964.5V744H1731.99C1648.46 677.465 1606.7 585.45 1606.7 467.953C1606.7 350.455 1651.29 261.625 1740.48 201.461H1964.5V312.941H1805.24C1770.56 349.04 1753.22 400.71 1753.22 467.953ZM2067.12 507.236V312.941H1993.86V201.461H2067.12V53.8815H2208.32V201.461H2295.39V312.941H2208.32V541.211C2208.32 584.388 2215.76 614.824 2230.62 632.519H2295.39V744H2144.62C2107.11 709.317 2084.46 671.803 2076.67 631.458C2070.3 597.483 2067.12 556.075 2067.12 507.236ZM2802.55 744H2647.54V496.619L2490.4 0.795457H2634.8L2700.62 226.942L2722.92 357.534H2727.17L2749.46 226.942L2815.29 0.795457H2959.68L2802.55 496.619V744ZM3275.63 744H3044.17C2973.39 678.173 2938 588.281 2938 474.323C2938 416.99 2945.79 367.089 2961.36 324.62C2977.64 282.151 3003.12 241.098 3037.8 201.461H3286.25C3323.05 243.93 3348.18 285.337 3361.63 325.682C3375.08 365.32 3381.8 414.867 3381.8 474.323C3381.8 588.281 3346.41 678.173 3275.63 744ZM3119.55 632.519H3200.25C3225.73 582.972 3238.47 526.701 3238.47 463.706C3238.47 400.71 3225.37 350.456 3199.18 312.941H3119.55C3094.07 349.04 3081.33 400.356 3081.33 466.891C3081.33 532.718 3094.07 587.927 3119.55 632.519ZM3645.73 744H3534.25C3503.1 704.362 3481.87 664.725 3470.54 625.087C3459.22 585.45 3453.56 535.903 3453.56 476.446V201.461H3594.77V487.064C3594.77 551.475 3607.51 599.96 3632.99 632.519H3731.73V201.461H3872.94V744H3761.46L3742.35 705.778C3715.45 731.259 3683.24 744 3645.73 744ZM3964.84 744V201.461H4065.71L4092.25 258.794C4120.56 220.572 4156.31 201.461 4199.48 201.461H4240.89V343.731H4106.05V744H3964.84ZM4477.14 744V0.795457H4779.73C4814.41 13.5361 4845.2 35.8323 4872.1 67.6839C4899 99.5355 4912.44 138.111 4912.44 183.411C4912.44 263.394 4886.26 319.312 4833.88 351.163V355.41C4899 391.509 4931.56 448.134 4931.56 525.286C4931.56 613.762 4886.61 686.667 4796.72 744H4477.14ZM4621.53 307.633H4726.64C4757.79 288.522 4773.36 259.501 4773.36 220.572C4773.36 181.642 4758.85 150.852 4729.83 128.202H4621.53V307.633ZM4621.53 620.84H4730.89C4743.63 611.639 4754.96 597.129 4764.87 577.31C4775.48 557.491 4780.79 537.672 4780.79 517.853C4780.79 498.035 4776.54 479.985 4768.05 463.706C4759.56 447.426 4748.94 435.393 4736.2 427.607H4621.53V620.84ZM5326.49 744H5095.04C5024.25 678.173 4988.86 588.281 4988.86 474.323C4988.86 416.99 4996.65 367.089 5012.22 324.62C5028.5 282.151 5053.98 241.098 5088.67 201.461H5337.11C5373.91 243.93 5399.04 285.337 5412.49 325.682C5425.94 365.32 5432.66 414.867 5432.66 474.323C5432.66 588.281 5397.27 678.173 5326.49 744ZM5170.42 632.519H5251.11C5276.59 582.972 5289.33 526.701 5289.33 463.706C5289.33 400.71 5276.24 350.456 5250.05 312.941H5170.42C5144.94 349.04 5132.2 400.356 5132.2 466.891C5132.2 532.718 5144.94 587.927 5170.42 632.519ZM5919.55 744H5812.32L5793.21 705.778C5777.64 719.934 5762.77 729.844 5748.62 735.506C5735.17 741.169 5714.64 744 5687.04 744H5594.67C5563.52 714.272 5538.75 675.342 5520.35 627.211C5502.65 579.079 5493.8 525.286 5493.8 465.829C5493.8 405.665 5502.65 354.702 5520.35 312.941C5538.75 271.18 5564.58 234.02 5597.85 201.461H5689.16C5726.67 201.461 5756.4 211.37 5778.34 231.189V0.795457H5919.55V744ZM5778.34 312.941H5676.42C5650.23 357.534 5637.14 412.389 5637.14 477.508C5637.14 541.919 5649.88 593.59 5675.36 632.519H5778.34V312.941ZM6007.31 445.656V201.461H6148.52V446.718C6148.52 508.298 6160.91 559.615 6185.68 600.668H6248.32C6271.68 560.322 6283.36 509.006 6283.36 446.718V201.461H6424.57V438.224C6424.57 491.31 6417.49 538.026 6403.33 578.372C6389.88 618.717 6367.59 664.371 6336.44 715.334L6265.31 831.061C6252.57 853.003 6239.12 869.283 6224.96 879.9C6210.81 890.517 6192.4 898.303 6169.75 903.258H6002V791.777H6116.67C6131.53 787.531 6143.92 780.099 6153.83 769.481C6163.74 758.864 6174 743.646 6184.62 723.827L6190.99 712.148H6117.73C6083.75 684.544 6056.86 647.383 6037.04 600.668C6017.22 553.244 6007.31 501.574 6007.31 445.656ZM6637.61 128.202H6477.29V0.795457H6942.32V128.202H6782V744H6637.61V128.202ZM6942.54 445.656V201.461H7083.75V446.718C7083.75 508.298 7096.13 559.615 7120.91 600.668H7183.55C7206.91 560.322 7218.58 509.006 7218.58 446.718V201.461H7359.79V438.224C7359.79 491.31 7352.72 538.026 7338.56 578.372C7325.11 618.717 7302.81 664.371 7271.67 715.334L7200.54 831.061C7187.79 853.003 7174.35 869.283 7160.19 879.9C7146.03 890.517 7127.63 898.303 7104.98 903.258H6937.23V791.777H7051.89C7066.76 787.531 7079.15 780.099 7089.05 769.481C7098.96 758.864 7109.23 743.646 7119.84 723.827L7126.21 712.148H7052.96C7018.98 684.544 6992.08 647.383 6972.27 600.668C6952.45 553.244 6942.54 501.574 6942.54 445.656ZM7447.55 201.461H7561.16L7577.08 239.683C7592.65 225.526 7607.16 215.617 7620.61 209.954C7634.77 204.292 7655.65 201.461 7683.25 201.461H7778.81C7808.54 230.481 7831.89 267.995 7848.88 314.003C7865.87 360.011 7874.36 410.62 7874.36 465.829C7874.36 584.034 7838.97 676.758 7768.19 744H7677.94C7640.43 744 7610.7 734.091 7588.76 714.272V903.258H7447.55V201.461ZM7588.76 632.519H7690.69C7716.87 587.927 7729.97 533.779 7729.97 470.076C7729.97 406.373 7716.52 353.995 7689.62 312.941H7588.76V632.519ZM8195.67 312.941H8116.05C8105.43 325.682 8096.58 343.377 8089.5 366.027C8083.13 388.677 8079.95 410.62 8079.95 431.854H8231.77C8233.19 410.62 8230.36 388.677 8223.28 366.027C8216.2 342.67 8207 324.974 8195.67 312.941ZM8340.07 632.519V744H8070.39C8020.84 710.733 7985.81 669.68 7965.28 620.84C7945.46 571.293 7935.55 521.393 7935.55 471.138C7935.55 355.056 7979.44 265.164 8067.21 201.461H8239.21C8286.63 236.144 8318.83 272.95 8335.82 311.88C8352.81 350.809 8361.3 390.093 8361.3 429.731C8361.3 469.368 8358.12 503.343 8351.75 531.656H8087.38C8089.5 547.936 8095.52 566.693 8105.43 587.927C8116.05 608.454 8127.37 623.318 8139.4 632.519H8340.07Z" fill="#FFF6E9"/>
</svg>
